# xmcd
# Copyright (C) 1995-1998 Ti Kan
#
# Track frame offsets:
#       150
#       13921
#       28089
#       43342
#       63449
#       82139
#       98349
#       104145
#       119645
#       134509
#       151989
#       166964
#       186042
#       205406
#       221409
#       241903
#
# Disc length: 3356 seconds
#
# Revision: 2
# Processed by: cddbd v1.5.1PL2 Copyright (c) Steve Scherf et al.
# Submitted via: CD-Transfer v1.0
#
DISCID=e90d1a10
DTITLE=Stop The Shoppers - Mambogimp
DYEAR=2005
DGENRE=
TTITLE0=Ahora Y Hoy
TTITLE1=Schlucker
TTITLE2=Wett Di Wider Gseh
TTITLE3=Hurrikan
TTITLE4=Füdeler
TTITLE5=Palmsunntig
TTITLE6=Quickie
TTITLE7=Pulver
TTITLE8=Le Chien En Moi
TTITLE9=Sorongo
TTITLE10=Shanghaibossa
TTITLE11=Katastrophen Am Chuchitisch
TTITLE12=Stägen Uf Stägen Ab
TTITLE13=Oezi
TTITLE14=Ay Marianna
TTITLE15=Schluckerjam
EXTD=
EXTT0=
EXTT1=
EXTT2=
EXTT3=
EXTT4=
EXTT5=
EXTT6=
EXTT7=
EXTT8=
EXTT9=
EXTT10=
EXTT11=
EXTT12=
EXTT13=
EXTT14=
EXTT15=
PLAYORDER=
